<svg width="47" height="47" viewBox="0 0 47 47" fill="none" xmlns="http://www.w3.org/2000/svg">
<path d="M23.511 32.5117V27.6343" stroke="#696CFF" stroke-width="2.98795" stroke-linecap="round" stroke-linejoin="round"/>
<path fill-rule="evenodd" clip-rule="evenodd" d="M35.4204 10.6978C38.6694 10.6978 41.284 13.3316 41.284 16.5806V23.1941C36.5547 25.9625 30.3065 27.6351 23.5008 27.6351C16.6951 27.6351 10.4662 25.9625 5.73682 23.1941V16.5614C5.73682 13.3124 8.37066 10.6978 11.6197 10.6978H35.4204Z" stroke="#696CFF" stroke-width="2.98795" stroke-linecap="round" stroke-linejoin="round"/>
<path d="M30.2393 10.6892V9.98557C30.2393 7.6401 28.336 5.73682 25.9906 5.73682H21.0305C18.685 5.73682 16.7817 7.6401 16.7817 9.98557V10.6892" stroke="#696CFF" stroke-width="2.98795" stroke-linecap="round" stroke-linejoin="round"/>
<path d="M5.78369 30.2166L6.14705 35.0401C6.39313 38.2911 9.10195 40.8038 12.3606 40.8038H34.6598C37.9185 40.8038 40.6273 38.2911 40.8734 35.0401L41.2367 30.2166" stroke="#696CFF" stroke-width="2.98795" stroke-linecap="round" stroke-linejoin="round"/>
</svg>
