<svg  width="40" height="40" viewBox="0 0 40 40" fill="none" xmlns="http://www.w3.org/2000/svg">
<path d="M34.1432 12.5185C34.1432 12.1355 33.9356 11.7826 33.6007 11.5966L20.0225 4.05309C19.704 3.87614 19.3167 3.87614 18.9981 4.05309L5.41989 11.5966C5.08509 11.7826 4.87744 12.1355 4.87744 12.5185V27.5361C4.87744 27.9191 5.08509 28.272 5.41989 28.458L18.9982 36.0015C19.3167 36.1785 19.704 36.1785 20.0225 36.0015L33.6007 28.458C33.9356 28.272 34.1432 27.9191 34.1432 27.5361V12.5185ZM18.9985 7.77584C19.3169 7.59918 19.7038 7.59918 20.0221 7.77584L27.4575 11.9024C28.1813 12.3041 28.1813 13.3451 27.4573 13.7467L24.9352 15.146C24.5168 15.3782 23.9998 15.2923 23.6285 14.9904C22.5057 14.0774 21.0714 13.5238 19.5103 13.5238C17.9492 13.5238 16.515 14.0774 15.3922 14.9904C15.0209 15.2923 14.5038 15.3782 14.0854 15.146L11.5633 13.7467C10.8394 13.3451 10.8393 12.3041 11.5632 11.9024L18.9985 7.77584ZM17.8844 29.8771C17.8844 30.681 17.021 31.1893 16.318 30.7992L8.67204 26.5557C8.33701 26.3697 8.12919 26.0167 8.12919 25.6336V17.3653C8.12919 16.5611 8.99329 16.0528 9.69623 16.4435L12.4834 17.993C12.9133 18.232 13.1123 18.7365 13.0533 19.2248C13.0217 19.4862 13.0068 19.7549 13.0068 20.0273C13.0068 22.7644 14.6983 25.1152 17.1047 26.0672C17.5532 26.2446 17.8844 26.6571 17.8844 27.1394V29.8771ZM16.2586 20.0273C16.2586 18.2388 17.7219 16.7756 19.5103 16.7756C21.2988 16.7756 22.7621 18.2388 22.7621 20.0273C22.7621 21.8158 21.2988 23.2791 19.5103 23.2791C17.7219 23.2791 16.2586 21.8158 16.2586 20.0273ZM22.7026 30.7992C21.9997 31.1893 21.1362 30.681 21.1362 29.8771V27.1557C21.1362 26.6733 21.4674 26.2609 21.9159 26.0835C24.3224 25.1314 26.0138 22.7806 26.0138 20.0436C26.0138 19.7638 25.9981 19.4881 25.9647 19.2181C25.9048 18.7333 26.1039 18.2339 26.5309 17.9965L29.3244 16.4435C30.0273 16.0528 30.8914 16.5611 30.8914 17.3653V25.6336C30.8914 26.0167 30.6836 26.3697 30.3486 26.5557L22.7026 30.7992Z" fill="#696CFF"/>
</svg>
